<?xml version="1.0" encoding="utf-8"?>
<!-- Generator: Adobe Illustrator 22.0.1, SVG Export Plug-In . SVG Version: 6.00 Build 0)  -->
<svg version="1.1" id="Layer_1" xmlns="http://www.w3.org/2000/svg" xmlns:xlink="http://www.w3.org/1999/xlink" x="0px" y="0px"
	 viewBox="0 0 128 32" style="enable-background:new 0 0 128 32;" xml:space="preserve" width="128" height="32">
<style type="text/css">
	.st0{filter:url(#Adobe_OpacityMaskFilter);}
	.st1{fill:#FFFFFF;}
	.st2{mask:url(#mask-2_1_);}
	.st3{fill:#FF3333;}
	.st4{filter:url(#Adobe_OpacityMaskFilter_1_);}
	.st5{mask:url(#mask-4_1_);}
	.st6{fill:#FF9900;}
	.st7{filter:url(#Adobe_OpacityMaskFilter_2_);}
	.st8{mask:url(#mask-6_1_);}
	.st9{fill:#0099FF;}
	.st10{filter:url(#Adobe_OpacityMaskFilter_3_);}
	.st11{mask:url(#mask-8_1_);}
	.st12{fill:#009900;}
</style>
<title>Sprite-Notification</title>
<desc>Created with Sketch.</desc>
<g id="_x21B3_-Color_1_" transform="translate(2.666667, 2.666667)">
	<defs>
		<filter id="Adobe_OpacityMaskFilter" filterUnits="userSpaceOnUse" x="-2.7" y="-2.7" width="32" height="32">
			<feColorMatrix  type="matrix" values="1 0 0 0 0  0 1 0 0 0  0 0 1 0 0  0 0 0 1 0"/>
		</filter>
	</defs>
	<mask maskUnits="userSpaceOnUse" x="-2.7" y="-2.7" width="32" height="32" id="mask-2_1_">
		<g class="st0">
			<path id="path-1_2_" class="st1" d="M13.3,0C6,0,0,6,0,13.3s6,13.3,13.3,13.3s13.3-6,13.3-13.3c0-3.5-1.4-6.9-3.9-9.4
				S16.9,0,13.3,0z M13.3,24C7.4,24,2.7,19.2,2.7,13.3S7.4,2.7,13.3,2.7S24,7.4,24,13.3c0,2.8-1.1,5.5-3.1,7.5S16.2,24,13.3,24z
				 M12,10.7h2.7V20H12V10.7z M14.5,6.8c0.5,0.5,0.6,1.3,0.2,2c-0.4,0.6-1.1,1-1.8,0.8c-0.7-0.2-1.2-0.8-1.2-1.6
				c0-0.4,0.2-0.9,0.5-1.2C12.8,6.2,13.8,6.2,14.5,6.8z"/>
		</g>
	</mask>
	<g id="Color_x2F__x21B3_-For-icons_x2F_14.-Red---Error-only-_x28__x23_FF3333_x29_" class="st2">
		<g id="Color_x2F_05.-Red_x2F_01.-Red" transform="translate(-2.666667, -2.666667)">
			<g>
				<rect id="_x21B3_-Color" y="0" class="st3" width="32" height="32"/>
			</g>
		</g>
	</g>
</g>
<g id="Icon_x2F_01.-UI_x2F__x21B3_-Parts_x2F_Warning" transform="translate(32.000000, 0.000000)">
	<g id="_x21B3_-Color_3_" transform="translate(2.666667, 4.000000)">
		<defs>
			<filter id="Adobe_OpacityMaskFilter_1_" filterUnits="userSpaceOnUse" x="-2.7" y="-4" width="32" height="32">
				<feColorMatrix  type="matrix" values="1 0 0 0 0  0 1 0 0 0  0 0 1 0 0  0 0 0 1 0"/>
			</filter>
		</defs>
		<mask maskUnits="userSpaceOnUse" x="-2.7" y="-4" width="32" height="32" id="mask-4_1_">
			<g class="st4">
				<path id="path-3_2_" class="st1" d="M14.7,14.7H12V8h2.7V14.7z M12.2,16.2c-0.3,0.3-0.5,0.7-0.5,1.2c0,0.9,0.7,1.7,1.7,1.7
					c0.9,0,1.7-0.7,1.7-1.7c0-0.4-0.2-0.9-0.5-1.2C13.8,15.5,12.8,15.5,12.2,16.2z M26.1,22.1c-0.7,1.2-2,1.9-3.3,1.9h-19
					c-1.4,0-2.6-0.7-3.3-1.9c-0.7-1.2-0.7-2.7,0-3.8L10,1.9C10.7,0.7,12,0,13.3,0s2.6,0.7,3.3,1.9l9.5,16.3
					C26.8,19.4,26.8,20.9,26.1,22.1z M23.8,19.6L14.4,3.3c-0.2-0.4-0.6-0.6-1-0.6c-0.4,0-0.8,0.2-1,0.6L2.8,19.6
					c-0.2,0.4-0.2,0.8,0,1.2c0.2,0.4,0.6,0.6,1,0.6h19c0.4,0,0.8-0.2,1-0.6C24.1,20.4,24.1,19.9,23.8,19.6L23.8,19.6z"/>
			</g>
		</mask>
		<g id="Color_x2F__x21B3_-For-icons_x2F_04.-KPN-orange-_x28__x23_FF9900_x29_" class="st5">
			<g id="Color_x2F_03.-Orange_x2F_01.-KPN-orange" transform="translate(-2.666667, -4.000000)">
				<g>
					<rect id="_x21B3_-Color_2_" x="0" y="0" class="st6" width="32" height="32"/>
				</g>
			</g>
		</g>
	</g>
</g>
<g id="Icon_x2F_01.-UI_x2F__x21B3_-Parts_x2F_Info" transform="translate(64.000000, 0.000000)">
	<g id="Group" transform="translate(2.666667, 2.666667)">
		<defs>
			<filter id="Adobe_OpacityMaskFilter_2_" filterUnits="userSpaceOnUse" x="-2.7" y="-2.7" width="32" height="32">
				<feColorMatrix  type="matrix" values="1 0 0 0 0  0 1 0 0 0  0 0 1 0 0  0 0 0 1 0"/>
			</filter>
		</defs>
		<mask maskUnits="userSpaceOnUse" x="-2.7" y="-2.7" width="32" height="32" id="mask-6_1_">
			<g class="st7">
				<path id="path-5_2_" class="st1" d="M13.3,0C6,0,0,6,0,13.3s6,13.3,13.3,13.3s13.3-6,13.3-13.3c0-3.5-1.4-6.9-3.9-9.4
					S16.9,0,13.3,0z M13.3,24C7.4,24,2.7,19.2,2.7,13.3S7.4,2.7,13.3,2.7S24,7.4,24,13.3c0,2.8-1.1,5.5-3.1,7.5S16.2,24,13.3,24z
					 M12,10.7h2.7V20H12V10.7z M14.5,6.8c0.5,0.5,0.6,1.3,0.2,2c-0.4,0.6-1.1,1-1.8,0.8c-0.7-0.2-1.2-0.8-1.2-1.6
					c0-0.4,0.2-0.9,0.5-1.2C12.8,6.2,13.8,6.2,14.5,6.8z"/>
			</g>
		</mask>
		<g id="Color_x2F__x21B3_-For-icons_x2F_02.-KPN-blue-_x28__x23_0099FF_x29_" class="st8">
			<g id="Color_x2F_02.-Blue_x2F_01.-KPN-blue" transform="translate(-2.666667, -2.666667)">
				<g>
					<rect id="_x21B3_-Color_4_" y="0" class="st9" width="32" height="32"/>
				</g>
			</g>
		</g>
	</g>
</g>
<g id="Icon_x2F_01.-UI_x2F__x21B3_-Parts_x2F_Check" transform="translate(96.000000, 0.000000)">
	<g id="_x21B3_-Color_6_" transform="translate(8.000000, 8.000000)">
		<defs>
			<filter id="Adobe_OpacityMaskFilter_3_" filterUnits="userSpaceOnUse" x="-8" y="-8" width="32" height="32">
				<feColorMatrix  type="matrix" values="1 0 0 0 0  0 1 0 0 0  0 0 1 0 0  0 0 0 1 0"/>
			</filter>
		</defs>
		<mask maskUnits="userSpaceOnUse" x="-8" y="-8" width="32" height="32" id="mask-8_1_">
			<g class="st10">
				<path id="path-7_2_" class="st1" d="M15.4,0h3.2L7.8,16.7c-0.2,0.4-0.7,0.6-1.1,0.6c-0.5,0-0.9-0.2-1.1-0.6L0,8h3.1l3.5,5.5
					L15.4,0z"/>
			</g>
		</mask>
		<g id="Color_x2F__x21B3_-For-icons_x2F_01.-KPN-green-_x28__x23_009900_x29_" class="st11">
			<g id="Color_x2F_01.-Green_x2F_01.-KPN-green" transform="translate(-8.000000, -8.000000)">
				<g>
					<rect id="_x21B3_-Color_5_" y="0" class="st12" width="32" height="32"/>
				</g>
			</g>
		</g>
	</g>
</g>
</svg>
