<svg xmlns="http://www.w3.org/2000/svg" width="96" height="96" viewBox="0 0 96 96"><defs><style>.a{fill:none;}.b{fill:#333;}</style></defs><title>service-assemble</title><rect class="a" width="96" height="96"/><path class="b" d="M71.59,27.41A2,2,0,0,0,73,28h6a2,2,0,0,0,1.57-.76l11-14a2,2,0,0,0-.16-2.65l-6-6a2,2,0,0,0-2.65-.16l-14,11A2,2,0,0,0,68,17v6a2,2,0,0,0,.59,1.42l.08.08L53,40.17,37.58,24.72A17,17,0,0,0,21,4c-2.78,0-7,0-7.7,2.83a2,2,0,0,0,.52,1.9l6.36,6.36a3.41,3.41,0,0,1,0,4.82,3.36,3.36,0,0,1-2.4,1h0a3.37,3.37,0,0,1-2.41-1L10,14.56l-1.24-1.3a2,2,0,0,0-2.66-.21C3.91,14.74,4,17.83,4,20.09c0,.31,0,.62,0,.91A16.89,16.89,0,0,0,23.7,37.77L34.4,48.46,6.61,76.24a10,10,0,0,0,0,14.14h0a10,10,0,0,0,14.14,0L48.53,62.61,74.72,88.8A9.52,9.52,0,0,0,88.18,75.34L55.84,43,71.5,27.33ZM8,21c0-.32,0-.65,0-1,0-.54,0-1.19,0-1.81l4.53,4.54a7.36,7.36,0,0,0,5.24,2.16h0A7.35,7.35,0,0,0,23,22.74a7.44,7.44,0,0,0,0-10.48l-4.2-4.2C19.39,8,20.11,8,21,8A13,13,0,1,1,8,21Zm28,7.86L50.19,43l-3,3a10,10,0,0,0-9.7-.06l-9.46-9.47A17.09,17.09,0,0,0,36.06,28.86ZM17.93,87.56a6,6,0,0,1-8.49-8.49L38.07,50.44a6,6,0,0,1,8.49,8.49Zm67.42-9.39a5.54,5.54,0,0,1,0,7.81,5.54,5.54,0,0,1-7.8,0L51.08,59.49a10,10,0,0,0-.84-10.89L53,45.83ZM72,18,83.84,8.66l3.49,3.5L78,24h-4.2L72,22.17Z"/></svg>